<?xml version="1.0" encoding="UTF-8"?>
<svg width="59px" height="80px" viewBox="0 0 59 80" version="1.1" xmlns="http://www.w3.org/2000/svg" xmlns:xlink="http://www.w3.org/1999/xlink">
    <!-- Generator: sketchtool 42 (36781) - http://www.bohemiancoding.com/sketch -->
    <title>7BD71DCE-561A-437F-B9D5-ECA257BE4466</title>
    <desc>Created with sketchtool.</desc>
    <defs></defs>
    <g id="Symbols" stroke="none" stroke-width="1" fill="none" fill-rule="evenodd">
        <g id="Desktop-/-Technologies" transform="translate(-751.000000, -198.000000)" fill-rule="nonzero" fill="#001B27">
            <g id="Java-Logo">
                <g transform="translate(694.000000, 29.000000)">
                    <path d="M76.4102813,230.322032 C76.4102813,230.322032 73.3992346,232.162096 78.5048693,232.687821 C84.6577286,233.476383 87.9306351,233.34507 94.7380807,232.030677 C94.7380807,232.030677 96.570872,233.213545 99.0581992,234.13363 C83.7413834,240.705267 64.3662584,233.739219 76.4102686,230.32204 L76.4102813,230.322032 Z M74.4465399,221.77897 C74.4465399,221.77897 71.1737596,224.276125 76.2793312,224.801839 C82.9559605,225.459089 88.1924746,225.590402 97.2254382,223.750388 C97.2254382,223.750388 98.4036835,225.064728 100.367326,225.721922 C81.9086224,231.242115 61.2242995,226.247646 74.446666,221.778945 L74.4465399,221.77897 Z M110.578545,236.762257 C110.578545,236.762257 112.804086,238.602374 108.091208,240.048025 C99.3200035,242.676709 71.3044902,243.465254 63.4497064,240.048025 C60.7005699,238.86521 65.9370966,237.156517 67.6388824,236.893668 C69.3407741,236.499414 70.2571268,236.499414 70.2571268,236.499414 C67.2462567,234.396461 50.2274912,240.836625 61.6168646,242.676689 C92.9051079,247.802572 118.695128,240.44237 110.578308,236.762237 L110.578545,236.762257 Z M77.8502375,212.841523 C77.8502375,212.841523 63.5807598,216.258752 72.7447163,217.441633 C76.6721082,217.967304 84.3959496,217.835994 91.5962227,217.310214 C97.4872475,216.784489 103.378424,215.733038 103.378424,215.733038 C103.378424,215.733038 101.283783,216.653017 99.8436826,217.573156 C85.3124209,221.384594 57.42785,219.676002 65.4135259,215.733038 C72.2209968,212.447169 77.8501619,212.84153 77.8501619,212.84153 L77.8502375,212.841523 Z M103.378474,227.167625 C118.040704,219.54452 111.233283,212.184339 106.520362,213.104421 C105.342117,213.367257 104.818471,213.630146 104.818471,213.630146 C104.818471,213.630146 105.21122,212.841533 106.127563,212.578695 C115.422462,209.292826 122.753576,222.436048 103.116693,227.56193 C103.116693,227.56193 103.247486,227.430511 103.378489,227.167623 L103.378474,227.167625 Z M79.2903779,247.934003 C93.4290644,248.854089 115.029707,247.408279 115.553275,240.705259 C115.553275,240.705259 114.506033,243.333944 103.902093,245.305318 C91.8580572,247.539744 76.9340436,247.276852 68.1627633,245.831043 C68.1627633,245.831043 69.9955016,247.408272 79.2903527,247.933996 L79.2903779,247.934003 Z M94.4763597,169.46875 C94.4763597,169.46875 102.592978,177.748989 86.7524427,190.235128 C74.0538461,200.35538 83.8723637,206.138396 86.7524427,212.710007 C79.2903855,206.007061 73.9229541,200.092507 77.5884862,194.572314 C82.9560185,186.423487 97.74914,182.480586 94.4763597,169.468775 L94.4763597,169.46875 Z M90.2871837,207.189916 L90.2871761,207.189941 C77.457637,192.338117 104.294794,185.634993 104.294794,185.634993 C87.276079,195.492498 90.4179673,198.384006 94.4763521,204.298408 C98.9273879,210.475785 89.239838,215.470256 89.239838,215.470256 C89.239838,215.470256 94.0835575,211.527228 90.2871837,207.189916 Z" id="java-logo"></path>
                </g>
            </g>
        </g>
    </g>
</svg>