<?xml version="1.0" encoding="UTF-8" standalone="no"?>
<svg
   xmlns:dc="http://purl.org/dc/elements/1.1/"
   xmlns:cc="http://creativecommons.org/ns#"
   xmlns:rdf="http://www.w3.org/1999/02/22-rdf-syntax-ns#"
   xmlns:svg="http://www.w3.org/2000/svg"
   xmlns="http://www.w3.org/2000/svg"
   viewBox="0 0 4804.9331 5294.9468"
   height="100"
   width="120"
   xml:space="preserve"
   id="svg2"
   version="1.1"><metadata
     id="metadata8"><rdf:RDF><cc:Work
         rdf:about=""><dc:format>image/svg+xml</dc:format><dc:type
           rdf:resource="http://purl.org/dc/dcmitype/StillImage" /></cc:Work></rdf:RDF></metadata><defs
     id="defs6"><clipPath
       id="clipPath20"
       clipPathUnits="userSpaceOnUse"><path
         id="path18"
         d="M 0,0 H 13309.7 V 14667 H 0 Z" /></clipPath></defs><g
     transform="matrix(1.3333333,0,0,-1.3333333,0,5294.9467)"
     id="g10"><g
       transform="scale(0.270757)"
       id="g12"><g
         id="g14"><g
           clip-path="url(#clipPath20)"
           id="g16"><path
             id="path22"
             style="fill:#81cd39;fill-opacity:1;fill-rule:nonzero;stroke:none"
             d="m 6054.33,14510.6 c 363.69,208.2 837.39,209.1 1200.74,0 1828.03,-1032.9 3656.63,-2064.3 5484.33,-3097.8 343.8,-193.7 573.8,-576.2 570.3,-972.4 V 4225.86 c 2.6,-412.51 -250.1,-804.23 -612.8,-993.47 C 10874.9,2205.12 9053.74,1176.63 7232.03,149.359 6860.85,-62.8594 6377.64,-46.5 6018.02,183.117 5471.78,499.785 4924.61,814.863 4378.32,1131.24 c -111.65,66.55 -237.48,119.51 -316.3,227.73 69.66,93.92 194.27,105.63 295.51,146.63 227.99,72.53 437.44,188.91 646.89,301.85 52.96,36.23 117.63,22.35 168.42,-10.08 467.1,-267.84 930.09,-543.44 1398.75,-808.694 99.97,-57.727 201.21,18.914 286.67,66.554 1787.99,1010.54 3578.14,2017.23 5365.84,3028.07 66.2,31.87 102.8,102.19 97.5,174.77 1.2,2050.03 0.3,4100.43 0.6,6150.53 7.6,82.3 -40.1,158 -114.5,191.7 -1815.7,1022.5 -3630.51,2046.6 -5445.91,3069.4 -64.37,44.3 -149.36,44.4 -213.84,0.4 -1815.43,-1023.2 -3629.88,-2048.2 -5445.28,-3070.7 -74.18,-33.7 -123.959,-108.2 -115.131,-190.8 0.313,-2050.1 0,-4100.5 0,-6150.87 -6.449,-72.5 32.951,-141.34 98.731,-172.55 484.44,-274.71 969.52,-547.47 1454.28,-821.25 273.1,-147 608.41,-234.34 909.3,-121.73 265.52,95.25 451.62,366.19 446.56,648.1 2.52,2038.11 -1.25,4076.5 1.89,6114.28 -6.61,90.49 79.18,165.22 167.16,156.72 232.79,1.6 465.84,3.1 698.63,-0.6 97.14,2.2 164.03,-95.25 152.02,-186.41 -0.96,-2050.99 2.48,-4102.06 -1.59,-6153.01 0.63,-546.62 -223.92,-1141.4 -729.54,-1408.87 -622.87,-322.65 -1392.75,-254.21 -2008.1,55.18 -532.72,265.88 -1041.09,579.67 -1564.353,864.5 C 248.902,3420.3 -2.51563,3813.61 0.046875,4225.82 v 6214.58 c -3.816405,404.4 235.273125,793.9 589.754125,984.7 1821.729,1028.1 3643.149,2057 5464.529,3085.5" /><path
             id="path24"
             style="fill:#81cd39;fill-opacity:1;fill-rule:nonzero;stroke:none"
             d="m 7643.62,10205.7 c 794.51,51.2 1645.09,30.3 2360.08,-361.07 553.6,-299.97 860.4,-929.47 870.2,-1544.45 -15.4,-82.95 -102.2,-128.71 -181.3,-123.02 -230.6,0.29 -461.2,-3.14 -691.7,1.55 -97.76,-3.77 -154.6,86.43 -166.86,172.85 -66.27,294.25 -226.74,585.69 -503.7,727.63 -425.15,212.85 -918.1,202.13 -1381.73,197.7 -338.42,-17.95 -702.36,-47.27 -989.11,-246.27 -220.13,-150.76 -286.98,-455.1 -208.42,-700.22 74.09,-175.99 277.22,-232.76 443.46,-285.1 957.5,-250.44 1972.14,-225.51 2911.36,-555.07 388.9,-134.36 769.3,-395.56 902.4,-802.68 174.1,-545.69 97.8,-1197.9 -290.5,-1635.96 -314.8,-360.48 -773.34,-556.7 -1230.68,-663.26 -608.41,-135.65 -1239.79,-139.13 -1857.65,-78.89 -581,66.26 -1185.6,218.87 -1634.09,614.72 -383.55,333.04 -570.88,851.91 -552.26,1352.7 4.43,84.57 88.64,143.55 169.67,136.61 232.13,1.89 464.29,2.51 696.42,-0.33 92.74,6.65 161.47,-73.5 166.24,-160.88 42.8,-280.37 148.18,-574.62 392.64,-740.81 471.82,-304.41 1063.83,-283.58 1604.06,-292.07 447.56,19.83 950,25.85 1315.24,321.65 192.68,168.75 249.81,451.03 197.7,693.9 -56.39,205.02 -270.91,300.57 -455.09,363.02 -945.24,299.02 -1971.22,190.51 -2907.3,528.67 -380.05,134.29 -747.54,388.21 -893.53,778.63 -203.73,552.57 -110.4,1236.06 318.55,1659.32 418.2,421.04 1021.91,583.13 1595.9,641.23 v -0.1" /></g></g></g></g></svg>