<?xml version="1.0" encoding="utf-8"?>
<!-- Generator: Adobe Illustrator 21.1.0, SVG Export Plug-In . SVG Version: 6.00 Build 0)  -->
<svg version="1.1" id="Layer_1" xmlns="http://www.w3.org/2000/svg" xmlns:xlink="http://www.w3.org/1999/xlink" x="0px" y="0px"
	 viewBox="0 0 305.3 79.6" style="enable-background:new 0 0 305.3 79.6;" xml:space="preserve">
<style type="text/css">
	.st0{fill:#0B79BF;}
</style>
<g>
	<g>
		<path class="st0" d="M116.9,52.5l-6.7-10.2h-3v9.9c0,0.8-0.3,1.3-1.3,1.3h-5c-1,0-1.3-0.4-1.3-1.4V21.9c0-1.3,0.3-1.6,1.6-1.6h7.3
			c4.1,0,9,0.3,11.9,3.6c1.7,1.9,2.6,4.6,2.6,7.2c0,4.3-1.8,7.8-5.7,9.8v0.1l7.9,11.2c0.2,0.3,0.3,0.6,0.3,0.8
			c0,0.4-0.4,0.6-0.8,0.6H119C118.1,53.6,117.4,53.3,116.9,52.5z M109.1,26h-1.9v10.6h2.4c3.5,0,5.7-1.9,5.7-5.4
			C115.3,27.4,112.7,26,109.1,26z"/>
		<path class="st0" d="M149.1,42.4c0,1.2-0.5,1.4-1.7,1.4h-13.4c0.6,3,3.3,4.7,6.2,4.7c2.1,0,4.1-0.5,6-1.2c0.2-0.1,0.4-0.1,0.6-0.1
			c0.4,0,0.7,0.3,0.8,0.7c0.2,0.8,0.9,3,0.9,3.7c0,0.6-0.4,0.8-0.9,1.1c-2.5,1.2-5.9,1.6-8.7,1.6c-7.6,0-12.5-4.7-12.5-12.4
			c0-7.4,5-12.3,12.4-12.3c3.1,0,5.7,1.2,7.4,3.1c2.4,2.5,2.9,5.9,2.9,9.2L149.1,42.4L149.1,42.4z M142,39.2c0-2.1-1.2-4.2-3.7-4.2
			c-2.4,0-4,1.9-4.3,4.2H142z"/>
		<path class="st0" d="M176.7,52.5c0,0.7-0.5,1.1-1.2,1.1H173c-2.8,0-4-0.8-4.6-2.2h-0.1c-1.3,1.5-4.4,2.8-6.7,2.8
			c-6.9,0-10.1-5.5-10.1-11.9c0-8.5,5.3-12.8,10.6-12.8c2.7,0,4.8,1.2,5.9,2.7l0.1-1.1c0-0.5,0.5-1,1.1-1h4.3c0.7,0,1.2,0.4,1.2,1.2
			v16.6c0,0.5,0.2,0.8,0.7,0.8h0.4c0.7,0,1,0.2,1,1L176.7,52.5L176.7,52.5z M167.4,37.1c-0.9-0.8-2.4-1.6-3.9-1.6
			c-2.4,0-4.6,1.9-4.6,6.4c0,3,0.8,6.5,4.4,6.5c1.7,0,3.5-1.3,4-2L167.4,37.1L167.4,37.1z"/>
		<path class="st0" d="M201.6,52.2c0,1-0.6,1.3-1.3,1.3h-4c-0.8,0-1.2-0.4-1.2-1l-0.1-1c-1.2,1.3-3.8,2.6-6.1,2.6
			c-7,0-10.3-5.4-10.3-11.9c0-6.4,3.4-12.8,10.5-12.8c2.1,0,4.1,0.7,5.4,1.9V21.3c0-0.9,0.2-1.3,1.2-1.5l5.1-0.7c0.7,0,1,0.4,1,1.1
			V52.2L201.6,52.2z M194.4,36.8c-0.9-0.8-2.4-1.5-3.8-1.5c-3.5,0-4.6,3.7-4.6,6.6c0,3,0.8,6.5,4.5,6.5c1.4,0,3.2-0.9,3.9-1.7
			L194.4,36.8L194.4,36.8z"/>
		<path class="st0" d="M228.7,31.5l-9.5,24.7c-2.2,5.7-5.1,7.8-11.3,7.8c-1.1,0-1.9-0.1-2.9-0.3c-0.9-0.2-0.9-0.8-0.8-1.5l0.4-3
			c0.1-1.1,0.4-1.1,1.1-1.1c0.5,0,1.3,0.1,1.9,0.1c3.3,0,4.2-1,5.1-3.1l0.7-1.4l-8.9-22.3c0-0.2-0.1-0.3-0.1-0.5
			c0-0.5,0.4-0.8,0.9-0.8h5.8c0.8,0,1.2,0.4,1.4,1l4.6,14.3l4.2-13.8c0.3-1,0.8-1.4,1.8-1.4h4.9c0.5,0,0.8,0.3,0.8,0.8
			C228.8,31.1,228.7,31.3,228.7,31.5z"/>
		<path class="st0" d="M260.2,53.6h-5.4c-1.2,0-1.6-0.5-1.9-1.3l-1.9-5.6h-11.9l-1.9,5.8c-0.2,0.6-0.6,1.2-1.4,1.2h-5.5
			c-0.5,0-0.8-0.3-0.8-0.8c0-0.2,0-0.4,0.1-0.6L241,21.5c0.3-0.7,0.7-1.2,1.6-1.2h4.9c1,0,1.5,0.4,1.7,1.1L261,51.9
			c0.1,0.3,0.1,0.5,0.1,0.7C261.2,53.2,260.8,53.6,260.2,53.6z M248.9,40.9l-3-9.5c-0.3-1.1-0.6-2-0.9-2.8h-0.1
			c-0.2,0.9-0.5,1.8-0.9,2.8l-3,9.4C241,40.9,248.9,40.9,248.9,40.9z"/>
		<path class="st0" d="M274.6,42.5c-0.6,0-2.1-0.1-2.6-0.1v9.9c0,0.8-0.3,1.3-1.4,1.3h-4.8c-0.9,0-1.4-0.3-1.4-1.5V21.7
			c0-1.2,0.3-1.5,1.4-1.5h7.5c5.6,0,9.4,1,11.9,3.6c1.7,1.9,2.6,4.6,2.6,7.1C287.7,38.7,282,42.5,274.6,42.5z M274.3,26.2h-2.4v10.4
			c0.6,0,2.2,0,2.6,0c3.6,0,5.5-1.8,5.5-5.3C280,27.7,277.9,26.2,274.3,26.2z"/>
		<path class="st0" d="M305.3,23.9c0,0.9-0.5,1.2-1.2,1.2h-2.6v23.5h2.4c0.8,0,1.2,0.6,1.2,1.2v2.5c0,0.6-0.4,1.1-1.1,1.1h-12.3
			c-0.7,0-1.2-0.5-1.2-1.1v-2.6c0-0.9,0.5-1.2,1.2-1.2h2.2V25.1h-2.5c-0.8,0-1.2-0.6-1.2-1.2v-2.5c0-0.6,0.4-1.1,1.1-1.1h12.9
			c0.7,0,1.2,0.5,1.2,1.1L305.3,23.9L305.3,23.9z"/>
	</g>
	<g>
		<g>
			<g>
				<g>
					<path class="st0" d="M42.5,30.8c0-7.7-5.2-10.4-12.5-10.4h-3.8v21.4H31C38.1,41.8,42.5,38,42.5,30.8z"/>
				</g>
				<g>
					<path class="st0" d="M10.7,26.7l-9.1,9.1c-2.2,2.2-2.2,5.8,0,8l9.1,9.1L10.7,26.7z"/>
				</g>
				<g>
					<path class="st0" d="M39.2,64.1l-7-10.7h-6V61l0,7.3l0,0v0l9.6,9.6c2.2,2.2,5.8,2.2,8,0l2.7-2.7L39.2,64.1z"/>
				</g>
				<g>
					<path class="st0" d="M77.9,35.8L43.8,1.7c-2.2-2.2-5.8-2.2-8,0l-7.1,7.1h0.1c0.1,0,0.1,0,0.2,0h0.4l0,0
						c8.1,0,17.8,0.8,23.5,7.3C56.3,20,58,25.3,58,30.6c0,8.6-3.7,15.8-11.6,19.8v0.2L56.6,65l0,0l21.3-21.3
						C80.1,41.6,80.1,38,77.9,35.8z"/>
				</g>
			</g>
		</g>
	</g>
</g>
</svg>
