<?xml version="1.0" encoding="UTF-8"?>
<svg width="71px" height="70px" viewBox="0 0 71 70" version="1.1" xmlns="http://www.w3.org/2000/svg" xmlns:xlink="http://www.w3.org/1999/xlink">
    <!-- Generator: sketchtool 42 (36781) - http://www.bohemiancoding.com/sketch -->
    <title>07707373-6A77-4EF9-AAE1-A82B0426FB19</title>
    <desc>Created with sketchtool.</desc>
    <defs></defs>
    <g id="Symbols" stroke="none" stroke-width="1" fill="none" fill-rule="evenodd">
        <g id="Desktop-/-Technologies" transform="translate(-919.000000, -201.000000)" fill="#000000">
            <g id="Selenium">
                <g transform="translate(868.000000, 55.000000)">
                    <g id="SELENIUM-ICON" transform="translate(51.000000, 146.000000)">
                        <path d="M55.6418453,6.85564178 L41.3893368,21.4187953 L34.5561328,14.3130858 L25.9066171,22.6308907 L41.3137882,38.6524938 L63.6172524,15.8629074 C63.8673002,16.8703031 64,17.924171 64,19.0091968 L64,56.9908032 C64,64.1755842 58.1791855,70 50.9908032,70 L13.0091968,70 C5.82441579,70 0,64.1791855 0,56.9908032 L0,19.0091968 C0,11.8244158 5.82081454,6 13.0091968,6 L50.9908032,6 C52.6295812,6 54.197586,6.30282863 55.6418453,6.85564178 Z M10.2924805,53.5576172 L4.83740234,53.5576172 C4.83740234,56.4026835 5.85789995,58.638501 7.89892578,60.2651367 C9.93995161,61.8917725 12.7416814,62.7050781 16.3041992,62.7050781 C19.7924979,62.7050781 22.4921779,61.8794028 24.4033203,60.2280273 C26.3144627,58.5766519 27.2700195,56.5016401 27.2700195,54.0029297 C27.2700195,51.5660685 26.4536214,49.7044335 24.8208008,48.4179688 C23.7693632,47.5891886 22.2107851,46.9274113 20.1450195,46.4326172 L15.4321289,45.3007812 C13.6137604,44.8678364 12.4262723,44.4905615 11.8696289,44.1689453 C11.0037392,43.686521 10.5708008,42.9567106 10.5708008,41.9794922 C10.5708008,40.9156848 11.009924,40.086917 11.8881836,39.4931641 C12.7664432,38.8994111 13.9415617,38.6025391 15.4135742,38.6025391 C16.7371485,38.6025391 17.8442338,38.8313779 18.7348633,39.2890625 C20.0708075,39.9817743 20.7882482,41.1507079 20.887207,42.7958984 L26.3793945,42.7958984 C26.2804357,39.8889829 25.2135518,37.6717199 23.1787109,36.144043 C21.14387,34.6163661 18.6853985,33.8525391 15.8032227,33.8525391 C12.3520335,33.8525391 9.73584875,34.6627523 7.95458984,36.2832031 C6.17333094,37.9036539 5.28271484,39.9384643 5.28271484,42.3876953 C5.28271484,45.0719535 6.20425511,47.0449156 8.04736328,48.3066406 C9.13591039,49.0612017 11.1026876,49.7600879 13.9477539,50.4033203 L16.8422852,51.0527344 C18.5369551,51.42383 19.7801067,51.8505835 20.5717773,52.3330078 C21.363448,52.827802 21.7592773,53.5266882 21.7592773,54.4296875 C21.7592773,55.9759192 20.9614338,57.0335258 19.3657227,57.6025391 C18.5245726,57.8994155 17.429857,58.0478516 16.081543,58.0478516 C13.8302296,58.0478516 12.2407273,57.4850317 11.3129883,56.359375 C10.8058243,55.7408823 10.4656584,54.8069724 10.2924805,53.5576172 Z M43.5981445,42.1835938 C42.2498305,41.5527312 40.7345462,41.2373047 39.0522461,41.2373047 C36.2195496,41.2373047 33.915699,42.1712146 32.140625,44.0390625 C30.365551,45.9069104 29.4780273,48.5911283 29.4780273,52.0917969 C29.4780273,55.8274926 30.4614159,58.5240803 32.4282227,60.1816406 C34.3950294,61.839201 36.6648634,62.6679688 39.237793,62.6679688 C42.3549961,62.6679688 44.779451,61.6845801 46.5112305,59.7177734 C47.6245173,58.4807881 48.2491855,57.2623758 48.3852539,56.0625 L42.9858398,56.0625 C42.7013332,56.656253 42.373537,57.1201155 42.0024414,57.4541016 C41.3220995,58.0725942 40.4376682,58.3818359 39.3491211,58.3818359 C38.3224233,58.3818359 37.4441768,58.1282577 36.7143555,57.6210938 C35.5144797,56.8046834 34.8774418,55.3821716 34.8032227,53.3535156 L48.6450195,53.3535156 C48.6697592,51.6093663 48.6140957,50.2734421 48.4780273,49.3457031 C48.2430001,47.7623619 47.7296589,46.3707742 46.9379883,45.1708984 C46.0597287,43.8102146 44.9464586,42.8144563 43.5981445,42.1835938 Z M36.2041016,46.7480469 C36.8782586,45.981116 37.8276306,45.5976562 39.0522461,45.5976562 C40.1779028,45.5976562 41.1210899,45.959469 41.8818359,46.6831055 C42.6425819,47.4067419 43.0662431,48.4674409 43.152832,49.8652344 L34.9331055,49.8652344 C35.1062834,48.5540299 35.5299445,47.5149778 36.2041016,46.7480469 Z" id="Combined-Shape"></path>
                        <polygon id="Path-2" fill-rule="nonzero" points="34.5008477 17.1409726 28.7345039 22.6861758 41.3263796 35.7802107 70.802112 5.66203073 65.0846067 0.0664848981 41.3767454 24.2910784"></polygon>
                    </g>
                </g>
            </g>
        </g>
    </g>
</svg>